<?xml version="1.0" encoding="UTF-8" standalone="no"?>
<!-- Created with Inkscape (http://www.inkscape.org/) -->

<svg
   width="1966"
   height="511.99997"
   viewBox="0 0 520.1708 135.46666"
   version="1.1"
   id="svg1"
   inkscape:version="1.4 (86a8ad7, 2024-10-11)"
   sodipodi:docname="logotype.svg"
   xmlns:inkscape="http://www.inkscape.org/namespaces/inkscape"
   xmlns:sodipodi="http://sodipodi.sourceforge.net/DTD/sodipodi-0.dtd"
   xmlns="http://www.w3.org/2000/svg"
   xmlns:svg="http://www.w3.org/2000/svg">
  <sodipodi:namedview
     id="namedview1"
     pagecolor="#ffffff"
     bordercolor="#999999"
     borderopacity="1"
     inkscape:showpageshadow="2"
     inkscape:pageopacity="0"
     inkscape:pagecheckerboard="true"
     inkscape:deskcolor="#d1d1d1"
     inkscape:document-units="px"
     showgrid="true"
     inkscape:zoom="0.35355339"
     inkscape:cx="862.67027"
     inkscape:cy="216.37468"
     inkscape:window-width="1920"
     inkscape:window-height="1009"
     inkscape:window-x="1912"
     inkscape:window-y="-8"
     inkscape:window-maximized="1"
     inkscape:current-layer="layer1">
    <inkscape:grid
       id="grid2"
       units="px"
       originx="-157.03448"
       originy="0"
       spacingx="0.26458332"
       spacingy="0.26458334"
       empcolor="#0099e5"
       empopacity="0.30196078"
       color="#0099e5"
       opacity="0.14901961"
       empspacing="5"
       enabled="true"
       visible="true" />
  </sodipodi:namedview>
  <defs
     id="defs1" />
  <g
     inkscape:label="Layer 1"
     inkscape:groupmode="layer"
     id="layer1"
     transform="translate(-157.0345)">
    <path
       style="-inkscape-font-specification:'Wanted Sans Variable Bold';fill:#8f7895;stroke-width:2.05865;stroke-linecap:round;stroke-linejoin:round"
       d="m 164.12312,80.30959 q 12.6824,0 21.02483,-0.482776 8.34238,-0.531048 16.54013,-2.027649 l 1.25377,10.138252 q -8.53528,1.544878 -17.11881,2.07593 -8.53531,0.531052 -21.69992,0.531052 H 157.0345 V 80.30959 Z M 197.107,41.398008 H 169.42755 V 84.17178 H 157.0345 V 31.452863 h 40.0725 z m 29.94585,70.388442 H 214.61159 V 23.680204 h 12.44126 z M 219.96423,64.184939 H 192.76702 V 53.99841 h 27.19721 z m 40.69938,-33.118296 h 34.96097 v -5.889842 h 12.44126 V 54.626015 H 248.36699 V 25.176801 h 12.29662 z m 34.96097,14.338387 v -5.213958 h -34.96097 v 5.213958 z m 22.61608,23.849035 h -80.09675 v -9.848588 h 80.09675 z m -9.74083,27.325009 h -48.75246 v 8.014046 H 247.40254 V 88.033974 h 48.75245 v -4.586355 h -48.84888 v -9.124428 h 61.19372 z m 2.31465,14.386666 h -63.41194 v -9.31754 h 63.41194 z m 77.92678,-73.960974 h -56.17865 v -9.99342 h 56.17865 z m 5.69021,-1.689709 q 0,8.738208 -0.38571,15.014267 -0.3857,6.276064 -2.02533,13.952171 L 379.6756,63.364223 q 1.59133,-7.482996 1.97712,-13.517671 0.3857,-6.08295 0.3857,-14.531495 v -8.303711 h 12.39305 z m -62.68863,19.407513 -1.59134,-10.283085 55.74465,-1.15866 v 9.172708 z m 71.75436,23.800755 h -79.80743 v -9.848588 h 79.80743 z m -37.61317,-3.524249 h -12.48952 v -17.0902 h 12.48952 z m 29.9941,35.242494 h -62.88152 v -9.99342 h 62.88152 z m -50.48847,-5.45534 H 332.99661 V 84.123504 h 12.39305 z m 113.2253,-65.560707 q 0,7.772664 -2.17,14.821163 -2.16997,7.000223 -6.79931,12.503846 -4.58108,5.455347 -11.52506,8.400267 l -6.50994,-9.607203 q 5.88306,-2.606978 9.74083,-6.807112 3.85777,-4.200134 5.642,-9.124428 1.8324,-4.972571 1.8324,-10.186533 V 28.990719 h 9.78908 z m 2.26644,0 q 0,4.876018 1.73597,9.365816 1.73602,4.489798 5.44911,8.158881 3.71309,3.620805 9.30684,5.889842 l -6.5582,9.558924 q -6.65462,-2.606976 -11.09106,-7.579551 -4.38819,-5.02085 -6.50995,-11.490021 -2.07354,-6.469171 -2.07354,-13.903891 V 28.990719 h 9.74083 z m 47.35401,38.235702 H 496.42103 V 23.776756 h 11.81438 z M 499.74834,55.205342 H 485.52285 V 45.115366 h 14.22549 z M 489.28416,74.709411 H 477.61442 V 25.369913 h 11.66974 z m -11.04285,3.958746 q 9.25862,0 16.10618,1.979373 6.84751,1.979373 10.5606,5.696735 3.7131,3.717357 3.7131,8.786484 0,5.117401 -3.7131,8.786481 -3.71309,3.71736 -10.5606,5.69674 -6.84756,1.97937 -16.10618,1.97937 -9.25863,0 -16.15436,-1.97937 -6.89576,-1.97938 -10.60886,-5.69674 -3.71309,-3.66908 -3.71309,-8.786481 0,-5.117402 3.71309,-8.786484 3.7131,-3.717362 10.60886,-5.696735 6.89573,-1.979373 16.15436,-1.979373 z m 0,9.414093 q -5.83485,0 -9.88551,0.820716 -4.00241,0.772436 -6.07596,2.365593 -2.07354,1.544877 -2.07354,3.86219 0,2.269041 2.07354,3.910471 2.07355,1.59315 6.07596,2.41386 4.05066,0.77245 9.88551,0.77245 5.78667,0 9.78908,-0.77245 4.00241,-0.82071 6.02774,-2.41386 2.07355,-1.64143 2.07355,-3.910471 0,-2.317313 -2.07355,-3.86219 -2.07354,-1.593157 -6.07595,-2.365593 -3.9542,-0.820716 -9.74087,-0.820716 z m 70.88637,-51.8982 q 0,9.027872 -2.74864,16.752255 -2.74868,7.724384 -8.39064,13.469395 -5.64199,5.74501 -14.08085,8.641652 l -6.55816,-10.138253 q 7.18505,-2.317313 11.95906,-6.662279 4.82218,-4.344966 7.13683,-9.99342 2.31468,-5.64846 2.31468,-12.06935 v -7.917496 h 10.36772 z m 2.31465,-0.627609 q 0,6.131231 2.12179,11.441746 2.12176,5.262234 6.55816,9.317536 4.48466,4.055302 11.18753,6.276063 l -6.41352,9.752033 q -7.71554,-2.606977 -12.97172,-7.82094 -5.25621,-5.262234 -7.90843,-12.552122 -2.65221,-7.289887 -2.65221,-16.414316 v -7.289887 h 10.0784 z m 40.79581,39.587467 H 579.6522 V 23.72848 h 12.58594 z m -30.04231,2.269037 q 9.30687,0 16.10618,2.027652 6.84751,2.02765 10.51239,5.889844 3.66488,3.813913 3.66488,9.124424 0,5.358798 -3.66488,9.220985 -3.66488,3.86219 -10.46418,5.88984 -6.7993,2.02765 -16.15439,2.02765 -9.30684,0 -16.15436,-2.02765 -6.7993,-2.02765 -10.46418,-5.88984 -3.66488,-3.862187 -3.66488,-9.220985 0,-5.310511 3.66488,-9.124424 3.66488,-3.862194 10.46418,-5.889844 6.84752,-2.027652 16.15436,-2.027652 z m 0,9.703757 q -5.88307,0 -9.83726,0.820715 -3.95424,0.772442 -5.97953,2.41387 -2.02533,1.641433 -2.02533,4.103578 0,2.462149 2.02533,4.151855 2.07354,1.68971 6.02774,2.51042 4.00241,0.82072 9.78905,0.82072 5.8831,0 9.83729,-0.82072 4.00245,-0.82071 6.02778,-2.51042 2.02529,-1.689706 2.02529,-4.151855 0,-2.462145 -2.02529,-4.103578 -2.02533,-1.641428 -5.97956,-2.41387 -3.9542,-0.820715 -9.88551,-0.820715 z M 581.62932,49.894828 H 563.40138 V 39.708299 h 18.22794 z m 95.576,61.650232 H 664.71585 V 23.680204 h 12.48947 z M 650.92436,32.756353 q 0,14.241834 -3.76135,25.780131 -3.71309,11.490021 -12.68236,21.193778 -8.96931,9.655476 -24.15925,16.945364 l -6.55816,-9.896865 q 12.63415,-5.986399 20.25323,-13.469394 7.66728,-7.531275 11.09106,-16.848812 3.47199,-9.365817 3.47199,-21.483442 v -2.22076 z m -6.50999,9.945144 h -35.97363 v -9.945144 h 35.97363 z"
       id="text1"
       aria-label="더블콘 생성기" />
  </g>
</svg>
